<svg width="666" height="266" viewBox="0 0 666 266" fill="none" xmlns="http://www.w3.org/2000/svg">
<path d="M103.771 218.498C88.024 218.498 74.5882 215.319 63.464 208.96C52.4842 202.457 44.1049 193.353 38.326 181.648C32.6917 169.943 29.8745 156.287 29.8745 140.68C29.8745 124.784 32.7639 110.911 38.5427 99.061C44.466 87.2113 52.9176 78.0349 63.8974 71.532C74.8771 64.8846 88.0962 61.5609 103.555 61.5609C115.257 61.5609 125.731 63.584 134.977 67.6303C144.223 71.532 151.663 77.3846 157.298 85.1881C163.077 92.8471 166.688 102.312 168.133 113.584H138.228C136.349 106.503 132.521 100.94 126.742 96.8934C121.108 92.7026 113.595 90.6072 104.205 90.6072C93.8028 90.6072 85.4958 92.9916 79.2835 97.7604C73.2157 102.385 68.8094 108.454 66.0644 115.969C63.3195 123.339 61.947 131.142 61.947 139.379C61.947 147.905 63.3917 155.998 66.2811 163.657C69.1705 171.316 73.7214 177.529 79.9336 182.298C86.2903 187.067 94.5974 189.451 104.855 189.451C110.923 189.451 116.34 188.584 121.108 186.85C125.875 184.972 129.776 182.298 132.81 178.83C135.988 175.362 138.155 171.243 139.311 166.475H170.3C169 177.602 165.244 187.067 159.031 194.871C152.819 202.674 144.945 208.599 135.41 212.645C125.875 216.547 115.329 218.498 103.771 218.498Z" fill="black"/>
<path d="M260.582 218.498C244.979 218.498 231.688 215.246 220.708 208.743C209.728 202.096 201.349 192.92 195.57 181.214C189.791 169.365 186.902 155.564 186.902 139.813C186.902 128.107 188.491 117.486 191.669 107.948C194.992 98.2662 199.76 89.9569 205.972 83.0205C212.329 76.084 220.058 70.8095 229.16 67.1967C238.261 63.4395 248.591 61.5609 260.148 61.5609C271.851 61.5609 282.325 63.4395 291.571 67.1967C300.817 70.954 308.474 76.5898 314.542 84.1043C320.754 91.4743 324.799 100.723 326.677 111.85H295.255C294.099 107.081 292.004 103.18 288.97 100.145C285.937 96.9656 282.108 94.5812 277.485 92.9916C273.006 91.402 267.878 90.6072 262.099 90.6072C254.153 90.6072 247.435 91.98 241.945 94.7257C236.455 97.4714 231.977 101.229 228.509 105.997C225.187 110.622 222.731 115.969 221.141 122.038C219.697 127.963 218.974 134.104 218.974 140.463C218.974 149.133 220.419 157.226 223.308 164.74C226.198 172.11 230.749 178.107 236.961 182.732C243.173 187.212 251.408 189.451 261.665 189.451C268.456 189.451 274.451 188.44 279.652 186.417C284.997 184.249 289.259 181.07 292.438 176.879C295.761 172.544 297.639 167.342 298.072 161.272H256.248V134.61H329.928V143.064C329.928 158.671 327.327 172.11 322.126 183.382C316.926 194.654 309.196 203.324 298.939 209.394C288.681 215.463 275.896 218.498 260.582 218.498Z" fill="black"/>
<path d="M384.463 216.764V92.1245H337.655V63.295H462.694V92.1245H415.669V216.764H384.463Z" fill="black"/>
<path d="M546.284 218.498C530.536 218.498 517.101 215.319 505.976 208.96C494.996 202.457 486.617 193.353 480.838 181.648C475.204 169.943 472.387 156.287 472.387 140.68C472.387 124.784 475.276 110.911 481.055 99.061C486.978 87.2113 495.43 78.0349 506.41 71.532C517.389 64.8846 530.609 61.5609 546.067 61.5609C557.769 61.5609 568.243 63.584 577.489 67.6303C586.735 71.532 594.176 77.3846 599.81 85.1881C605.589 92.8471 609.201 102.312 610.645 113.584H580.74C578.862 106.503 575.033 100.94 569.255 96.8934C563.62 92.7026 556.108 90.6072 546.717 90.6072C536.315 90.6072 528.008 92.9916 521.796 97.7604C515.728 102.385 511.322 108.454 508.577 115.969C505.832 123.339 504.459 131.142 504.459 139.379C504.459 147.905 505.904 155.998 508.793 163.657C511.683 171.316 516.234 177.529 522.446 182.298C528.803 187.067 537.11 189.451 547.367 189.451C553.435 189.451 558.853 188.584 563.62 186.85C568.388 184.972 572.288 182.298 575.322 178.83C578.501 175.362 580.668 171.243 581.823 166.475H612.812C611.512 177.602 607.756 187.067 601.544 194.871C595.331 202.674 587.458 208.599 577.923 212.645C568.388 216.547 557.841 218.498 546.284 218.498Z" fill="black"/>
<path d="M0 260.116V238.223H3.43634L14.8599 256.462V238.223H17.5532V260.116H14.1788L2.69335 241.939V260.116H0Z" fill="black"/>
<path d="M29.4476 260.302C27.7346 260.302 26.3002 259.951 25.1444 259.249C23.9887 258.527 23.1219 257.536 22.544 256.277C21.9867 255.017 21.7081 253.583 21.7081 251.972C21.7081 250.341 21.997 248.907 22.5749 247.668C23.1528 246.409 24.0196 245.418 25.1754 244.695C26.3312 243.973 27.7759 243.611 29.5095 243.611C31.2225 243.611 32.6466 243.973 33.7817 244.695C34.9375 245.418 35.794 246.409 36.3513 247.668C36.9291 248.907 37.2181 250.341 37.2181 251.972C37.2181 253.583 36.9291 255.017 36.3513 256.277C35.7734 257.536 34.9065 258.527 33.7508 259.249C32.6157 259.951 31.1813 260.302 29.4476 260.302ZM29.4476 257.98C30.6447 257.98 31.6147 257.711 32.3577 257.175C33.1213 256.638 33.6785 255.915 34.0294 255.007C34.4009 254.099 34.5866 253.087 34.5866 251.972C34.5866 250.858 34.4009 249.846 34.0294 248.938C33.6785 248.029 33.1213 247.307 32.3577 246.77C31.6147 246.233 30.6447 245.965 29.4476 245.965C28.2712 245.965 27.3012 246.233 26.5376 246.77C25.7946 247.307 25.2373 248.029 24.8658 248.938C24.515 249.846 24.3395 250.858 24.3395 251.972C24.3395 253.087 24.515 254.099 24.8658 255.007C25.2373 255.915 25.7946 256.638 26.5376 257.175C27.3012 257.711 28.2712 257.98 29.4476 257.98Z" fill="black"/>
<path d="M40.7388 260.116V243.797H43.2774L43.4012 246.336C43.814 245.696 44.2887 245.18 44.8253 244.788C45.3825 244.396 45.9914 244.107 46.6518 243.921C47.3329 243.715 48.0656 243.611 48.8498 243.611C48.9943 243.611 49.1285 243.611 49.2523 243.611C49.3968 243.611 49.5412 243.611 49.6857 243.611V246.089H48.726C47.4464 246.089 46.4041 246.367 45.5992 246.925C44.815 247.462 44.2474 248.194 43.8965 249.123C43.5457 250.032 43.3703 251.043 43.3703 252.158V260.116H40.7388Z" fill="black"/>
<path d="M59.8498 260.116C58.6115 260.116 57.6105 259.931 56.8469 259.559C56.1039 259.187 55.557 258.609 55.2061 257.825C54.8759 257.04 54.7108 256.05 54.7108 254.852V246.12H52.0484V243.797H54.7108V238.936H57.3422V243.797H61.7073V246.12H57.3422V254.573C57.3422 255.688 57.5383 256.514 57.9304 257.051C58.3432 257.567 59.1688 257.825 60.4071 257.825H61.6145V260.116H59.8498Z" fill="black"/>
<path d="M64.6829 260.116V238.223H67.3144V246.305C67.7065 245.727 68.1812 245.242 68.7384 244.85C69.3163 244.437 69.9458 244.128 70.6269 243.921C71.3079 243.715 72.0097 243.611 72.732 243.611C74.3212 243.611 75.5595 243.942 76.447 244.602C77.3551 245.263 77.9949 246.161 78.3664 247.296C78.7379 248.411 78.9236 249.691 78.9236 251.136V260.116H76.2922V251.941C76.2922 251.219 76.2406 250.507 76.1374 249.805C76.0548 249.082 75.8794 248.432 75.6111 247.854C75.3428 247.276 74.93 246.811 74.3728 246.46C73.8362 246.109 73.1035 245.934 72.1748 245.934C71.2873 245.934 70.5237 246.13 69.8839 246.522C69.2647 246.914 68.7694 247.441 68.3979 248.102C68.0264 248.741 67.7478 249.454 67.562 250.238C67.3969 251.002 67.3144 251.756 67.3144 252.499V260.116H64.6829Z" fill="black"/>
<path d="M100.791 260.364C98.5413 260.364 96.6631 259.889 95.1565 258.94C93.6705 257.969 92.556 256.648 91.813 254.976C91.0907 253.283 90.7295 251.353 90.7295 249.185C90.7295 247.038 91.101 245.129 91.844 243.457C92.587 241.764 93.7015 240.432 95.1875 239.462C96.6941 238.471 98.5825 237.976 100.853 237.976C102.463 237.976 103.845 238.234 105.001 238.75C106.178 239.245 107.127 239.937 107.849 240.824C108.572 241.712 109.067 242.755 109.335 243.952H106.611C106.301 242.879 105.631 242.022 104.599 241.382C103.587 240.742 102.308 240.422 100.76 240.422C99.0263 240.422 97.6228 240.835 96.5496 241.661C95.497 242.466 94.7231 243.529 94.2278 244.85C93.7324 246.151 93.4848 247.565 93.4848 249.092C93.4848 250.703 93.7428 252.179 94.2587 253.521C94.7747 254.862 95.5796 255.936 96.6735 256.741C97.7673 257.526 99.1604 257.918 100.853 257.918C101.885 257.918 102.803 257.773 103.608 257.484C104.434 257.195 105.115 256.782 105.651 256.246C106.209 255.709 106.59 255.09 106.797 254.388H109.738C109.428 255.585 108.871 256.638 108.066 257.546C107.282 258.434 106.281 259.125 105.063 259.621C103.845 260.116 102.421 260.364 100.791 260.364Z" fill="black"/>
<path d="M118.347 260.302C117.604 260.302 116.882 260.209 116.18 260.023C115.499 259.817 114.88 259.518 114.323 259.125C113.786 258.713 113.353 258.207 113.022 257.608C112.713 256.989 112.558 256.277 112.558 255.471C112.558 254.542 112.723 253.758 113.053 253.118C113.404 252.478 113.869 251.972 114.446 251.601C115.024 251.229 115.695 250.961 116.459 250.796C117.222 250.63 118.017 250.548 118.843 250.548H123.641C123.641 249.619 123.507 248.814 123.239 248.132C122.991 247.451 122.578 246.925 122 246.553C121.422 246.161 120.659 245.965 119.709 245.965C119.131 245.965 118.595 246.027 118.1 246.151C117.604 246.274 117.181 246.471 116.83 246.739C116.479 247.007 116.221 247.369 116.056 247.823H113.239C113.384 247.08 113.662 246.45 114.075 245.934C114.508 245.397 115.024 244.964 115.623 244.633C116.242 244.282 116.903 244.024 117.604 243.859C118.306 243.694 119.008 243.611 119.709 243.611C122.062 243.611 123.734 244.303 124.725 245.686C125.715 247.069 126.211 248.938 126.211 251.291V260.116H124.013L123.858 258.042C123.404 258.661 122.857 259.136 122.217 259.466C121.577 259.796 120.917 260.013 120.236 260.116C119.575 260.24 118.946 260.302 118.347 260.302ZM118.595 257.98C119.627 257.98 120.514 257.815 121.257 257.484C122.021 257.133 122.609 256.628 123.022 255.967C123.435 255.306 123.641 254.501 123.641 253.552V252.746H120.762C120.081 252.746 119.41 252.757 118.75 252.777C118.089 252.798 117.491 252.881 116.954 253.025C116.417 253.17 115.984 253.417 115.654 253.768C115.344 254.119 115.189 254.625 115.189 255.286C115.189 255.905 115.344 256.411 115.654 256.803C115.984 257.195 116.407 257.495 116.923 257.701C117.46 257.887 118.017 257.98 118.595 257.98Z" fill="black"/>
<path d="M130.287 260.116V243.797H132.826L132.95 245.748C133.301 245.253 133.693 244.85 134.126 244.54C134.58 244.231 135.076 244.004 135.612 243.859C136.169 243.694 136.758 243.611 137.377 243.611C138.512 243.611 139.43 243.859 140.132 244.355C140.834 244.829 141.36 245.459 141.711 246.244C142.082 245.686 142.505 245.211 142.98 244.819C143.475 244.427 144.022 244.128 144.621 243.921C145.24 243.715 145.921 243.611 146.664 243.611C147.861 243.611 148.821 243.869 149.543 244.386C150.286 244.902 150.823 245.604 151.153 246.491C151.483 247.358 151.648 248.339 151.648 249.433V260.116H149.017V250.765C149.017 250.228 148.986 249.681 148.924 249.123C148.883 248.566 148.759 248.05 148.553 247.575C148.346 247.08 148.037 246.687 147.624 246.398C147.232 246.089 146.674 245.934 145.952 245.934C145.271 245.934 144.693 246.099 144.218 246.429C143.764 246.739 143.393 247.162 143.104 247.699C142.815 248.236 142.609 248.814 142.485 249.433C142.361 250.032 142.299 250.63 142.299 251.229V260.116H139.668V250.734C139.668 250.218 139.637 249.681 139.575 249.123C139.533 248.566 139.42 248.05 139.234 247.575C139.069 247.08 138.78 246.687 138.367 246.398C137.975 246.089 137.428 245.934 136.727 245.934C135.736 245.934 134.962 246.223 134.405 246.801C133.848 247.358 133.455 248.05 133.228 248.876C133.022 249.681 132.919 250.476 132.919 251.26V260.116H130.287Z" fill="black"/>
<path d="M155.652 266V243.797H158.16L158.284 246.244C158.841 245.397 159.594 244.747 160.544 244.293C161.514 243.838 162.556 243.611 163.67 243.611C165.322 243.611 166.673 243.983 167.726 244.726C168.779 245.449 169.553 246.44 170.048 247.699C170.564 248.958 170.822 250.383 170.822 251.972C170.822 253.562 170.564 254.986 170.048 256.246C169.532 257.505 168.737 258.496 167.664 259.218C166.591 259.941 165.218 260.302 163.547 260.302C162.721 260.302 161.978 260.22 161.318 260.054C160.657 259.869 160.079 259.611 159.584 259.28C159.089 258.929 158.655 258.527 158.284 258.073V266H155.652ZM163.33 257.98C164.527 257.98 165.476 257.711 166.178 257.175C166.88 256.617 167.385 255.884 167.695 254.976C168.025 254.068 168.19 253.066 168.19 251.972C168.19 250.858 168.025 249.846 167.695 248.938C167.385 248.029 166.869 247.307 166.147 246.77C165.425 246.233 164.465 245.965 163.268 245.965C162.195 245.965 161.276 246.244 160.513 246.801C159.77 247.338 159.202 248.071 158.81 249C158.418 249.908 158.222 250.909 158.222 252.003C158.222 253.139 158.408 254.161 158.779 255.069C159.151 255.977 159.718 256.689 160.482 257.206C161.245 257.722 162.195 257.98 163.33 257.98Z" fill="black"/>
<path d="M181.147 260.302C178.897 260.302 177.184 259.704 176.008 258.506C174.852 257.309 174.274 255.471 174.274 252.994V243.797H176.906V252.87C176.906 253.944 177.06 254.862 177.37 255.626C177.679 256.39 178.144 256.979 178.763 257.391C179.403 257.784 180.197 257.98 181.147 257.98C182.137 257.98 182.953 257.784 183.592 257.391C184.232 256.979 184.697 256.39 184.986 255.626C185.295 254.862 185.45 253.944 185.45 252.87V243.797H188.081V252.994C188.081 255.471 187.483 257.309 186.286 258.506C185.109 259.704 183.396 260.302 181.147 260.302Z" fill="black"/>
<path d="M198.117 260.302C197.374 260.302 196.621 260.23 195.857 260.085C195.114 259.941 194.412 259.693 193.752 259.342C193.112 258.991 192.576 258.516 192.142 257.918C191.709 257.319 191.43 256.576 191.306 255.688H193.969C194.175 256.246 194.505 256.7 194.959 257.051C195.434 257.381 195.96 257.618 196.538 257.763C197.137 257.907 197.704 257.98 198.241 257.98C198.571 257.98 198.953 257.959 199.386 257.918C199.82 257.877 200.233 257.784 200.625 257.639C201.037 257.474 201.368 257.237 201.615 256.927C201.884 256.617 202.018 256.184 202.018 255.626C202.018 255.213 201.925 254.873 201.739 254.604C201.553 254.336 201.295 254.119 200.965 253.954C200.635 253.768 200.233 253.634 199.758 253.552C198.788 253.345 197.746 253.149 196.631 252.963C195.537 252.777 194.567 252.426 193.721 251.91C193.432 251.725 193.164 251.518 192.916 251.291C192.689 251.043 192.493 250.775 192.328 250.486C192.163 250.176 192.029 249.846 191.925 249.495C191.843 249.123 191.802 248.721 191.802 248.287C191.802 247.482 191.956 246.791 192.266 246.213C192.596 245.614 193.05 245.129 193.628 244.757C194.206 244.365 194.867 244.076 195.609 243.89C196.373 243.704 197.188 243.611 198.055 243.611C199.128 243.611 200.088 243.787 200.934 244.138C201.801 244.468 202.513 244.964 203.07 245.624C203.628 246.264 203.958 247.059 204.061 248.009H201.615C201.471 247.41 201.079 246.925 200.439 246.553C199.799 246.161 198.984 245.965 197.993 245.965C197.663 245.965 197.292 245.996 196.879 246.058C196.466 246.099 196.074 246.202 195.702 246.367C195.331 246.512 195.021 246.739 194.774 247.049C194.526 247.338 194.402 247.73 194.402 248.225C194.402 248.68 194.516 249.061 194.743 249.371C194.99 249.681 195.331 249.928 195.764 250.114C196.198 250.3 196.693 250.455 197.25 250.579C197.973 250.723 198.767 250.878 199.634 251.043C200.501 251.188 201.182 251.343 201.677 251.508C202.338 251.714 202.885 252.003 203.318 252.375C203.772 252.746 204.102 253.19 204.309 253.706C204.536 254.223 204.649 254.821 204.649 255.502C204.649 256.473 204.453 257.268 204.061 257.887C203.69 258.506 203.184 258.991 202.544 259.342C201.904 259.693 201.192 259.941 200.408 260.085C199.644 260.23 198.881 260.302 198.117 260.302Z" fill="black"/>
<path d="M591.701 30.9662H666V43.3527H591.701V30.9662Z" fill="black"/>
<path d="M622.659 0H635.042V111.478H622.659V0Z" fill="black"/>
</svg>
